<?xml version="1.0" standalone="no"?><!DOCTYPE svg PUBLIC "-//W3C//DTD SVG 1.1//EN" "http://www.w3.org/Graphics/SVG/1.1/DTD/svg11.dtd"><svg t="1547640414280" class="icon" style="" viewBox="0 0 1024 1024" version="1.1" xmlns="http://www.w3.org/2000/svg" p-id="2491" xmlns:xlink="http://www.w3.org/1999/xlink" width="200" height="200"><defs><style type="text/css"></style></defs><path d="M928 832h-64V179.2h64V832z m-768 0h-64V179.2h64V832z" fill="#2F3448" p-id="2492"></path><path d="M512 352c-204.8 0-416-57.6-416-160 0-211.2 832-211.2 832 0 0 102.4-211.2 160-416 160z m0-256c-230.4 0-352 64-352 96S281.6 288 512 288s352-64 352-96S742.4 96 512 96zM512 787.2c-204.8 0-416-57.6-416-160h64c0 32 121.6 96 352 96s352-64 352-96h64c0 102.4-211.2 160-416 160zM512 569.6c-204.8 0-416-57.6-416-160h64c0 32 121.6 96 352 96s352-64 352-96h64c0 102.4-211.2 160-416 160zM512 992c-204.8 0-416-57.6-416-160h64c0 32 121.6 96 352 96s352-64 352-96h64c0 102.4-211.2 160-416 160z" fill="#2F3448" p-id="2493"></path></svg>